<svg xmlns="http://www.w3.org/2000/svg" viewBox="0 0 400 400" width="100%" height="100%">
  <defs>
    <radialGradient id="aboBg" cx="50%" cy="50%" r="70%">
      <stop offset="0%" stop-color="#3d1e11"/>
      <stop offset="60%" stop-color="#241108"/>
      <stop offset="100%" stop-color="#140803"/>
    </radialGradient>
  </defs>
  
  <rect width="400" height="400" fill="url(#aboBg)" rx="12"/>
  
  <!-- Center Mandala Circles of Dots -->
  <g transform="translate(200, 200)">
    <circle cx="0" cy="0" r="14" fill="#d9531e"/>
    <circle cx="0" cy="0" r="6" fill="#f4cf68"/>
    
    <g fill="#ffffff">
      <circle cx="0" cy="-24" r="3"/><circle cx="17" cy="-17" r="3"/><circle cx="24" cy="0" r="3"/><circle cx="17" cy="17" r="3"/>
      <circle cx="0" cy="24" r="3"/><circle cx="-17" cy="17" r="3"/><circle cx="-24" cy="0" r="3"/><circle cx="-17" cy="-17" r="3"/>
    </g>
    
    <g fill="#f4cf68">
      <circle cx="0" cy="-36" r="3.5"/><circle cx="18" cy="-31" r="3.5"/><circle cx="31" cy="-18" r="3.5"/><circle cx="36" cy="0" r="3.5"/>
      <circle cx="31" cy="18" r="3.5"/><circle cx="18" cy="31" r="3.5"/><circle cx="0" cy="36" r="3.5"/><circle cx="-18" cy="31" r="3.5"/>
      <circle cx="-31" cy="18" r="3.5"/><circle cx="-36" cy="0" r="3.5"/><circle cx="-31" cy="-18" r="3.5"/><circle cx="-18" cy="-31" r="3.5"/>
    </g>
    
    <g fill="#d9531e">
      <circle cx="0" cy="-50" r="4"/><circle cx="25" cy="-43" r="4"/><circle cx="43" cy="-25" r="4"/><circle cx="50" cy="0" r="4"/>
      <circle cx="43" cy="25" r="4"/><circle cx="25" cy="43" r="4"/><circle cx="0" cy="50" r="4"/><circle cx="-25" cy="43" r="4"/>
      <circle cx="-43" cy="25" r="4"/><circle cx="-50" cy="0" r="4"/><circle cx="-43" cy="-25" r="4"/><circle cx="-25" cy="-43" r="4"/>
    </g>
    
    <g fill="#fbe8cc">
      <circle cx="0" cy="-66" r="4.5"/><circle cx="33" cy="-57" r="4.5"/><circle cx="57" cy="-33" r="4.5"/><circle cx="66" cy="0" r="4.5"/>
      <circle cx="57" cy="33" r="4.5"/><circle cx="33" cy="57" r="4.5"/><circle cx="0" cy="66" r="4.5"/><circle cx="-33" cy="57" r="4.5"/>
      <circle cx="-57" cy="33" r="4.5"/><circle cx="-66" cy="0" r="4.5"/><circle cx="-57" cy="-33" r="4.5"/><circle cx="-33" cy="-57" r="4.5"/>
    </g>

    <g fill="#8f2b11">
      <circle cx="0" cy="-84" r="5"/><circle cx="42" cy="-72" r="5"/><circle cx="72" cy="-42" r="5"/><circle cx="84" cy="0" r="5"/>
      <circle cx="72" cy="42" r="5"/><circle cx="42" cy="72" r="5"/><circle cx="0" cy="84" r="5"/><circle cx="-42" cy="72" r="5"/>
      <circle cx="-72" cy="42" r="5"/><circle cx="-84" cy="0" r="5"/><circle cx="-72" cy="-42" r="5"/><circle cx="-42" cy="-72" r="5"/>
    </g>
  </g>

  <!-- 4 Camps -->
  <g transform="translate(80, 80)">
    <circle cx="0" cy="0" r="10" fill="#d9531e"/>
    <circle cx="0" cy="0" r="4" fill="#f4cf68"/>
    <g fill="#ffffff">
      <circle cx="0" cy="-18" r="2.5"/><circle cx="13" cy="-13" r="2.5"/><circle cx="18" cy="0" r="2.5"/><circle cx="13" cy="13" r="2.5"/>
      <circle cx="0" cy="18" r="2.5"/><circle cx="-13" cy="13" r="2.5"/><circle cx="-18" cy="0" r="2.5"/><circle cx="-13" cy="-13" r="2.5"/>
    </g>
  </g>
  <g transform="translate(320, 80)">
    <circle cx="0" cy="0" r="10" fill="#d9531e"/>
    <circle cx="0" cy="0" r="4" fill="#f4cf68"/>
    <g fill="#ffffff">
      <circle cx="0" cy="-18" r="2.5"/><circle cx="13" cy="-13" r="2.5"/><circle cx="18" cy="0" r="2.5"/><circle cx="13" cy="13" r="2.5"/>
      <circle cx="0" cy="18" r="2.5"/><circle cx="-13" cy="13" r="2.5"/><circle cx="-18" cy="0" r="2.5"/><circle cx="-13" cy="-13" r="2.5"/>
    </g>
  </g>
  <g transform="translate(80, 320)">
    <circle cx="0" cy="0" r="10" fill="#d9531e"/>
    <circle cx="0" cy="0" r="4" fill="#f4cf68"/>
    <g fill="#ffffff">
      <circle cx="0" cy="-18" r="2.5"/><circle cx="13" cy="-13" r="2.5"/><circle cx="18" cy="0" r="2.5"/><circle cx="13" cy="13" r="2.5"/>
      <circle cx="0" cy="18" r="2.5"/><circle cx="-13" cy="13" r="2.5"/><circle cx="-18" cy="0" r="2.5"/><circle cx="-13" cy="-13" r="2.5"/>
    </g>
  </g>
  <g transform="translate(320, 320)">
    <circle cx="0" cy="0" r="10" fill="#d9531e"/>
    <circle cx="0" cy="0" r="4" fill="#f4cf68"/>
    <g fill="#ffffff">
      <circle cx="0" cy="-18" r="2.5"/><circle cx="13" cy="-13" r="2.5"/><circle cx="18" cy="0" r="2.5"/><circle cx="13" cy="13" r="2.5"/>
      <circle cx="0" cy="18" r="2.5"/><circle cx="-13" cy="13" r="2.5"/><circle cx="-18" cy="0" r="2.5"/><circle cx="-13" cy="-13" r="2.5"/>
    </g>
  </g>
</svg>